# xmcd
#
# Track frame offsets: 
#        150
#        11978
#        24051
#        40026
#        49054
#        61235
#        76636
#        87361
#        99635
#        111073
#        122192
#        133516
#        144590
#        154042
#        167056
#        179107
#        189747
#        198764
#
# Disc length: 2837 seconds
#
# Revision: 0
# Processed by: cddbd v1.5.2PL0 Copyright (c) Steve Scherf et al.
# Submitted via: ExactAudioCopy v0.99pb5
#
DISCID=ea0b1312
DTITLE=Sister Rosetta Tharpe - Complete Sister Rosetta Tharpe - Vol 5
DYEAR=2008
DGENRE=Gospel
TTITLE0=Two Little Fishes, Five Loaves Of Bread
TTITLE1=All Alone
TTITLE2=How About You
TTITLE3=99 Half Won't Do
TTITLE4=Precious Memories
TTITLE5=Beams Of Heaven
TTITLE6=When The Saints Go Marching In
TTITLE7=Can't No Grave Hold My Body Down
TTITLE8=When They Ring The Golden Bells
TTITLE9=Up Above My Head, There Is Music In The Air
TTITLE10=I Shall Know Him
TTITLE11=Fly Away
TTITLE12=Jericho
TTITLE13=Home In The Sky
TTITLE14=Can't Do Wrong And Get By
TTITLE15=Let's Be Happy
TTITLE16=Let It Shine
TTITLE17=Didn't It Rain Children
EXTD=
EXTT0=
EXTT1=
EXTT2=
EXTT3=
EXTT4=
EXTT5=
EXTT6=
EXTT7=
EXTT8=
EXTT9=
EXTT10=
EXTT11=
EXTT12=
EXTT13=
EXTT14=
EXTT15=
EXTT16=
EXTT17=
PLAYORDER=
